# xmcd CD database file
#
# Track frame offsets:
#	150
#	11367
#	20844
#	31780
#	43894
#	53107
#	65960
#	78469
#	90991
#	102649
#	114015
#	128109
#	139027
#	148164
#	159881
#	183327
#	195158
#	206352
#	223598
#	233404
#	259920
#	269693
#
# Disc length: 3730 seconds
#
# Revision: 1
# Processed by: cddbd v1.5.2PL0 Copyright (c) Steve Scherf et al.
# Submitted via: CDex 1.51
#
DISCID=300e9016
DTITLE=Les Baxter - Eight Classic Albums vol. 2.3 Round The World With .. and Skins
DYEAR=1957
DGENRE=Jazz
TTITLE0=Buenos Aires
TTITLE1=Melodia loca
TTITLE2=The Poor People Of Paris
TTITLE3=Japanese Parasols
TTITLE4=The Clown On The Eiffel Tower
TTITLE5=Auf Wiederseh'n Sweatheart
TTITLE6=Venezuela
TTITLE7=Purple Islands
TTITLE8=Padam, Padam
TTITLE9=Normandy
TTITLE10=Monika
TTITLE11=Romantic Rio
TTITLE12=Afro Deesia
TTITLE13=Brazilian Bash
TTITLE14=Bustin' The Bongos
TTITLE15=Conversation
TTITLE16=Poppin' Panderos
TTITLE17=Talkin' Drums
TTITLE18=Reverberasia
TTITLE19=Shoutin' Drums
TTITLE20=Gringo
TTITLE21=Mood Tattooed
EXTD=YEAR: 1957
EXTT0=
EXTT1=
EXTT2=
EXTT3=
EXTT4=
EXTT5=
EXTT6=
EXTT7=
EXTT8=
EXTT9=
EXTT10=
EXTT11=
EXTT12=
EXTT13=
EXTT14=
EXTT15=
EXTT16=
EXTT17=
EXTT18=
EXTT19=
EXTT20=
EXTT21=
PLAYORDER=
